<?xml version="1.0" encoding="UTF-8" standalone="no"?>
<!-- Generator: Adobe Illustrator 16.0.0, SVG Export Plug-In . SVG Version: 6.00 Build 0)  -->

<svg
   xmlns:dc="http://purl.org/dc/elements/1.1/"
   xmlns:cc="http://creativecommons.org/ns#"
   xmlns:rdf="http://www.w3.org/1999/02/22-rdf-syntax-ns#"
   xmlns:svg="http://www.w3.org/2000/svg"
   xmlns="http://www.w3.org/2000/svg"
   xmlns:xlink="http://www.w3.org/1999/xlink"
   xmlns:sodipodi="http://sodipodi.sourceforge.net/DTD/sodipodi-0.dtd"
   xmlns:inkscape="http://www.inkscape.org/namespaces/inkscape"
   version="1.1"
   id="Ebene_1"
   x="0px"
   y="0px"
   width="64"
   height="64"
   viewBox="0 0 64.000001 64.000001"
   enable-background="new 0 0 370 200"
   xml:space="preserve"
   sodipodi:docname="network_avv_aachen_logo.svg"
   inkscape:version="0.92.3 (2405546, 2018-03-11)"><metadata
   id="metadata61"><rdf:RDF><cc:Work
       rdf:about=""><dc:format>image/svg+xml</dc:format><dc:type
         rdf:resource="http://purl.org/dc/dcmitype/StillImage" /><dc:title></dc:title></cc:Work></rdf:RDF></metadata><defs
   id="defs59" /><sodipodi:namedview
   pagecolor="#ffffff"
   bordercolor="#666666"
   borderopacity="1"
   objecttolerance="10"
   gridtolerance="10"
   guidetolerance="10"
   inkscape:pageopacity="0"
   inkscape:pageshadow="2"
   inkscape:window-width="1620"
   inkscape:window-height="1008"
   id="namedview57"
   showgrid="false"
   inkscape:zoom="6.2405521"
   inkscape:cx="15.86437"
   inkscape:cy="17.989317"
   inkscape:window-x="0"
   inkscape:window-y="27"
   inkscape:window-maximized="0"
   inkscape:current-layer="Ebene_1"
   units="px"
   fit-margin-top="0"
   fit-margin-left="0"
   fit-margin-right="0"
   fit-margin-bottom="0"
   showguides="true"
   inkscape:guide-bbox="true"><sodipodi:guide
     position="-52.559453,30.766509"
     orientation="0,1"
     id="guide843"
     inkscape:locked="false" /></sodipodi:namedview>

<g
   id="g54"
   transform="translate(1.6440282e-7,-237.50748)">
</g>
<rect
   style="opacity:1;fill:#fafafa;fill-opacity:1;stroke:#000000;stroke-width:0;stroke-miterlimit:4;stroke-dasharray:none;stroke-opacity:1;image-rendering:auto"
   id="rect4575"
   width="64"
   height="64"
   x="8.2737429e-08"
   y="5.8273741e-07"
   rx="1.2915213" /><g
   id="g52"
   transform="matrix(0.16027529,0,0,0.16027529,3.0011551,17.340689)">
	<path
   d="m 315.661,181.785 c -0.595,-0.825 -0.894,-2.057 -0.894,-3.686 0,-1.609 0.299,-2.856 0.901,-3.732 0.603,-0.885 1.462,-1.322 2.595,-1.322 1.323,0 2.288,0.389 2.882,1.158 0.606,0.771 0.901,2.064 0.901,3.871 v 0.408 c 0,1.602 -0.286,2.76 -0.886,3.472 -0.594,0.716 -1.55,1.082 -2.873,1.082 -1.155,0 -2.023,-0.421 -2.626,-1.251 z m 6.752,2.633 h 1.575 v -18.113 h -1.94 v 5.189 l 0.051,0.896 0.08,0.924 h -0.147 c -0.923,-1.26 -2.254,-1.889 -3.98,-1.889 -1.668,0 -2.961,0.586 -3.885,1.749 -0.935,1.158 -1.401,2.792 -1.401,4.898 0,2.103 0.468,3.724 1.395,4.86 0.922,1.146 2.216,1.719 3.893,1.719 1.777,0 3.112,-0.647 3.998,-1.949 h 0.108 z m -12.905,0 v -8.328 c 0,-1.625 -0.389,-2.805 -1.172,-3.551 -0.771,-0.745 -1.93,-1.112 -3.468,-1.112 -0.876,0 -1.672,0.173 -2.384,0.519 -0.712,0.351 -1.268,0.83 -1.664,1.463 h -0.097 l -0.313,-1.744 h -1.57 v 12.755 h 1.934 v -6.692 c 0,-1.66 0.313,-2.855 0.931,-3.572 0.619,-0.725 1.598,-1.088 2.929,-1.088 1.015,0 1.757,0.254 2.229,0.771 0.472,0.51 0.712,1.289 0.712,2.325 v 8.256 z m -25.439,-12.755 v 8.345 c 0,1.622 0.388,2.801 1.158,3.538 0.774,0.737 1.929,1.108 3.483,1.108 0.9,0 1.71,-0.174 2.404,-0.506 0.703,-0.338 1.256,-0.813 1.651,-1.444 h 0.105 l 0.272,1.714 h 1.602 v -12.755 h -1.93 v 6.702 c 0,1.65 -0.315,2.843 -0.927,3.576 -0.619,0.725 -1.593,1.095 -2.933,1.095 -1.012,0 -1.752,-0.257 -2.225,-0.774 -0.472,-0.51 -0.712,-1.285 -0.712,-2.324 v -8.273 z m -6.108,2.629 c 0.581,0.812 0.868,2.051 0.868,3.711 0,1.626 -0.287,2.868 -0.868,3.731 -0.586,0.863 -1.47,1.302 -2.654,1.302 -1.318,0 -2.278,-0.388 -2.881,-1.158 -0.594,-0.774 -0.893,-2.06 -0.893,-3.854 0,-1.789 0.289,-3.065 0.876,-3.819 0.58,-0.759 1.528,-1.138 2.852,-1.138 1.213,-0.003 2.114,0.408 2.7,1.225 z m -6.428,-0.937 h -0.09 c 0.056,-0.782 0.09,-1.668 0.09,-2.648 v -4.402 H 269.6 v 18.113 h 1.386 l 0.408,-1.639 h 0.141 c 0.463,0.637 1.049,1.104 1.727,1.406 0.687,0.313 1.453,0.469 2.279,0.469 1.658,0 2.953,-0.581 3.896,-1.744 0.932,-1.158 1.398,-2.789 1.398,-4.887 0,-2.09 -0.468,-3.711 -1.396,-4.854 -0.923,-1.146 -2.225,-1.719 -3.899,-1.719 -1.77,0.002 -3.105,0.634 -4.007,1.905 z m -8.046,-1.253 c -0.66,0.45 -1.233,1.092 -1.706,1.922 h -0.097 l -0.215,-2.359 h -1.597 v 12.755 h 1.934 v -6.845 c 0,-1.247 0.357,-2.292 1.091,-3.131 0.741,-0.838 1.622,-1.26 2.653,-1.26 0.405,0 0.872,0.061 1.395,0.174 l 0.267,-1.791 c -0.451,-0.096 -0.956,-0.139 -1.521,-0.139 -0.793,-0.001 -1.539,0.226 -2.204,0.674 z m -9.802,1.916 c 0.548,0.649 0.822,1.58 0.822,2.797 h -6.669 c 0.104,-1.179 0.464,-2.102 1.074,-2.768 0.603,-0.669 1.428,-1.002 2.446,-1.002 1.008,0 1.788,0.324 2.327,0.973 z m 0.405,10.438 c 0.61,-0.126 1.255,-0.337 1.938,-0.636 v -1.719 c -1.344,0.571 -2.695,0.858 -4.068,0.858 -1.307,0 -2.321,-0.388 -3.037,-1.163 -0.712,-0.779 -1.091,-1.916 -1.133,-3.412 h 8.786 v -1.222 c 0,-1.718 -0.468,-3.108 -1.395,-4.157 -0.932,-1.053 -2.195,-1.58 -3.8,-1.58 -1.702,0 -3.063,0.607 -4.073,1.816 -1.016,1.209 -1.521,2.847 -1.521,4.898 0,2.043 0.543,3.635 1.63,4.78 1.095,1.154 2.582,1.731 4.465,1.731 0.864,0.004 1.605,-0.063 2.208,-0.194 z m -14.483,-0.038 4.84,-12.755 h -2.071 c -1.58,4.343 -2.604,7.165 -3.05,8.454 -0.459,1.289 -0.726,2.145 -0.817,2.553 h -0.097 c -0.103,-0.521 -0.465,-1.672 -1.092,-3.445 l -2.747,-7.562 h -2.063 l 4.835,12.755 z m -8.998,-5.585 c -0.529,-0.563 -1.555,-1.116 -3.065,-1.669 -1.104,-0.412 -1.841,-0.725 -2.229,-0.943 -0.396,-0.215 -0.678,-0.441 -0.847,-0.687 -0.177,-0.24 -0.266,-0.53 -0.266,-0.872 0,-0.501 0.235,-0.896 0.698,-1.188 0.469,-0.287 1.163,-0.431 2.073,-0.431 1.04,0 2.198,0.267 3.479,0.792 l 0.687,-1.57 c -1.313,-0.562 -2.654,-0.84 -4.027,-0.84 -1.47,0 -2.637,0.305 -3.482,0.902 -0.843,0.602 -1.26,1.423 -1.26,2.464 0,0.581 0.117,1.078 0.357,1.5 0.252,0.417 0.619,0.796 1.12,1.124 0.497,0.329 1.344,0.712 2.536,1.154 1.247,0.484 2.085,0.9 2.515,1.25 0.431,0.354 0.646,0.785 0.646,1.277 0,0.66 -0.274,1.149 -0.81,1.471 -0.548,0.324 -1.322,0.483 -2.33,0.483 -0.647,0 -1.331,-0.089 -2.033,-0.266 -0.699,-0.183 -1.36,-0.421 -1.973,-0.737 v 1.795 c 0.948,0.539 2.264,0.809 3.96,0.809 1.593,0 2.839,-0.323 3.729,-0.969 0.885,-0.645 1.323,-1.559 1.323,-2.746 0,-0.844 -0.262,-1.547 -0.801,-2.103 z m -13.543,-6.731 c -0.67,0.45 -1.229,1.092 -1.71,1.922 h -0.093 l -0.219,-2.359 h -1.598 v 12.755 h 1.935 v -6.845 c 0,-1.247 0.362,-2.292 1.1,-3.131 0.729,-0.838 1.613,-1.26 2.646,-1.26 0.408,0 0.867,0.061 1.401,0.174 l 0.263,-1.791 c -0.451,-0.096 -0.957,-0.139 -1.518,-0.139 -0.808,-0.001 -1.537,0.226 -2.207,0.674 z m -7.589,12.316 v -8.328 c 0,-1.607 -0.384,-2.783 -1.167,-3.529 -0.779,-0.74 -1.95,-1.107 -3.505,-1.107 -0.901,0 -1.71,0.177 -2.41,0.527 -0.693,0.354 -1.246,0.834 -1.621,1.447 h -0.113 c 0.055,-0.434 0.089,-0.984 0.089,-1.639 v -5.484 h -1.931 v 18.113 h 1.931 v -6.672 c 0,-1.656 0.314,-2.855 0.927,-3.581 0.619,-0.729 1.601,-1.101 2.936,-1.101 1.013,0 1.758,0.254 2.229,0.771 0.472,0.51 0.708,1.289 0.708,2.325 v 8.256 z m -16.842,-10.4 c 0.544,0.649 0.817,1.58 0.817,2.797 h -6.674 c 0.11,-1.179 0.469,-2.102 1.074,-2.768 0.611,-0.669 1.43,-1.002 2.452,-1.002 1.012,0 1.788,0.324 2.331,0.973 z m 0.4,10.438 c 0.609,-0.126 1.255,-0.337 1.94,-0.636 v -1.719 c -1.344,0.571 -2.704,0.858 -4.077,0.858 -1.302,0 -2.311,-0.388 -3.032,-1.163 -0.717,-0.779 -1.096,-1.916 -1.134,-3.412 h 8.787 v -1.222 c 0,-1.718 -0.464,-3.108 -1.395,-4.157 -0.932,-1.053 -2.194,-1.58 -3.795,-1.58 -1.711,0 -3.067,0.607 -4.078,1.816 -1.016,1.209 -1.521,2.847 -1.521,4.898 0,2.043 0.543,3.635 1.636,4.78 1.087,1.154 2.577,1.731 4.465,1.731 0.86,0.004 1.598,-0.063 2.204,-0.194 z m -18.29,-6.567 c 0.063,-0.893 0.095,-1.55 0.095,-1.979 v -9.604 h -1.915 v 18.112 h 1.915 v -4.772 l 1.451,-1.26 4.507,6.032 h 2.338 l -5.531,-7.321 5.173,-5.434 h -2.295 l -4.12,4.363 c -0.682,0.768 -1.191,1.387 -1.521,1.861 h -0.097 z m -7.928,-5.787 c -0.668,0.45 -1.233,1.092 -1.71,1.922 h -0.09 l -0.224,-2.359 h -1.599 v 12.755 h 1.937 v -6.845 c 0,-1.247 0.366,-2.292 1.102,-3.131 0.73,-0.838 1.613,-1.26 2.646,-1.26 0.404,0 0.87,0.061 1.397,0.174 l 0.271,-1.791 c -0.451,-0.096 -0.96,-0.139 -1.527,-0.139 -0.802,-0.001 -1.533,0.226 -2.203,0.674 z m -9.8,1.916 c 0.543,0.649 0.813,1.58 0.813,2.797 h -6.666 c 0.106,-1.179 0.465,-2.102 1.076,-2.768 0.608,-0.669 1.426,-1.002 2.449,-1.002 1.008,0 1.785,0.324 2.328,0.973 z m 0.402,10.438 c 0.605,-0.126 1.255,-0.337 1.936,-0.636 v -1.719 c -1.342,0.571 -2.7,0.858 -4.07,0.858 -1.307,0 -2.317,-0.388 -3.033,-1.163 -0.718,-0.779 -1.096,-1.916 -1.135,-3.412 h 8.788 v -1.222 c 0,-1.718 -0.465,-3.108 -1.397,-4.157 -0.931,-1.053 -2.197,-1.58 -3.793,-1.58 -1.706,0 -3.068,0.607 -4.082,1.816 -1.009,1.209 -1.52,2.847 -1.52,4.898 0,2.043 0.548,3.635 1.635,4.78 1.091,1.154 2.582,1.731 4.467,1.731 0.861,0.004 1.594,-0.063 2.204,-0.194 z m -15.661,-6.112 c -0.451,1.247 -0.815,2.502 -1.095,3.758 -0.266,-1.195 -0.619,-2.427 -1.068,-3.689 l -3.916,-11.012 h -2.093 l 6.1,17.019 h 1.952 l 6.138,-17.019 h -2.134 z m -18.429,-6.242 c -0.666,0.45 -1.238,1.092 -1.71,1.922 h -0.093 l -0.223,-2.359 h -1.595 v 12.755 h 1.934 v -6.845 c 0,-1.247 0.366,-2.292 1.103,-3.131 0.73,-0.838 1.614,-1.26 2.646,-1.26 0.402,0 0.868,0.061 1.396,0.174 l 0.268,-1.791 c -0.451,-0.096 -0.958,-0.139 -1.525,-0.139 -0.799,-0.001 -1.531,0.226 -2.201,0.674 z m -9.798,1.916 c 0.544,0.649 0.813,1.58 0.813,2.797 h -6.668 c 0.104,-1.179 0.468,-2.102 1.074,-2.768 0.61,-0.669 1.426,-1.002 2.45,-1.002 1.01,0 1.785,0.324 2.331,0.973 z m 0.4,10.438 c 0.607,-0.126 1.255,-0.337 1.938,-0.636 v -1.719 c -1.345,0.571 -2.703,0.858 -4.074,0.858 -1.307,0 -2.316,-0.388 -3.033,-1.163 -0.718,-0.779 -1.097,-1.916 -1.135,-3.412 h 8.789 v -1.222 c 0,-1.718 -0.467,-3.108 -1.398,-4.157 -0.931,-1.053 -2.197,-1.58 -3.793,-1.58 -1.708,0 -3.069,0.607 -4.082,1.816 -1.013,1.209 -1.521,2.847 -1.521,4.898 0,2.043 0.55,3.635 1.641,4.78 1.089,1.154 2.576,1.731 4.463,1.731 0.859,0.004 1.594,-0.063 2.205,-0.194 z m -11.567,-0.038 v -8.328 c 0,-1.625 -0.386,-2.805 -1.162,-3.551 -0.775,-0.745 -1.933,-1.112 -3.468,-1.112 -0.878,0 -1.672,0.173 -2.389,0.519 -0.714,0.351 -1.27,0.83 -1.664,1.463 h -0.092 l -0.316,-1.744 h -1.568 v 12.755 h 1.932 v -6.692 c 0,-1.66 0.31,-2.855 0.931,-3.572 0.622,-0.725 1.6,-1.088 2.937,-1.088 1.007,0 1.748,0.254 2.222,0.771 0.474,0.51 0.71,1.289 0.71,2.325 v 8.256 z m -16.842,-10.4 c 0.542,0.649 0.815,1.58 0.815,2.797 h -6.67 c 0.108,-1.179 0.467,-2.102 1.076,-2.768 0.607,-0.669 1.428,-1.002 2.448,-1.002 1.011,0 1.786,0.324 2.331,0.973 z m 0.401,10.438 c 0.607,-0.126 1.255,-0.337 1.938,-0.636 v -1.719 c -1.339,0.571 -2.699,0.858 -4.07,0.858 -1.305,0 -2.317,-0.388 -3.033,-1.163 -0.72,-0.779 -1.098,-1.916 -1.135,-3.412 h 8.787 v -1.222 c 0,-1.718 -0.467,-3.108 -1.396,-4.157 -0.931,-1.053 -2.197,-1.58 -3.793,-1.58 -1.708,0 -3.069,0.607 -4.082,1.816 -1.009,1.209 -1.519,2.847 -1.519,4.898 0,2.043 0.545,3.635 1.636,4.78 1.087,1.154 2.578,1.731 4.463,1.731 0.86,0.004 1.597,-0.063 2.204,-0.194 z m -11.566,-0.038 v -8.328 c 0,-1.607 -0.39,-2.783 -1.169,-3.529 -0.778,-0.74 -1.95,-1.107 -3.509,-1.107 -0.901,0 -1.702,0.177 -2.405,0.527 -0.701,0.354 -1.243,0.834 -1.62,1.447 h -0.117 c 0.061,-0.434 0.09,-0.984 0.09,-1.639 v -5.484 h -1.93 v 18.113 h 1.93 v -6.672 c 0,-1.656 0.312,-2.855 0.927,-3.581 0.617,-0.729 1.596,-1.101 2.938,-1.101 1.009,0 1.75,0.254 2.222,0.771 0.474,0.51 0.716,1.289 0.716,2.325 v 8.256 z m -13.688,-0.43 v -1.715 c -1.118,0.459 -2.203,0.688 -3.273,0.688 -1.237,0 -2.176,-0.417 -2.808,-1.256 -0.634,-0.838 -0.95,-2.043 -0.95,-3.605 0,-3.307 1.293,-4.961 3.888,-4.961 0.389,0 0.834,0.055 1.337,0.172 0.507,0.109 0.972,0.252 1.396,0.422 l 0.596,-1.644 c -0.352,-0.173 -0.832,-0.329 -1.444,-0.464 -0.613,-0.135 -1.227,-0.198 -1.84,-0.198 -1.898,0 -3.365,0.587 -4.391,1.749 -1.03,1.158 -1.544,2.811 -1.544,4.94 0,2.085 0.505,3.69 1.519,4.827 1.014,1.138 2.441,1.711 4.288,1.711 1.297,0 2.373,-0.222 3.226,-0.666 z M 40.793,182.51 c -0.423,-0.361 -0.636,-0.896 -0.636,-1.597 0,-0.894 0.341,-1.546 1.021,-1.976 0.676,-0.422 1.786,-0.662 3.324,-0.713 l 1.931,-0.084 v 1.154 c 0,1.188 -0.343,2.105 -1.032,2.768 -0.685,0.662 -1.63,0.99 -2.833,0.99 -0.759,0.003 -1.349,-0.18 -1.775,-0.542 z m 7.572,1.908 v -8.707 c 0,-1.49 -0.369,-2.572 -1.101,-3.252 -0.732,-0.67 -1.862,-1.007 -3.382,-1.007 -0.752,0 -1.502,0.093 -2.251,0.291 -0.748,0.188 -1.438,0.459 -2.066,0.805 l 0.593,1.476 c 1.344,-0.653 2.546,-0.979 3.609,-0.979 0.948,0 1.635,0.24 2.066,0.716 0.432,0.478 0.646,1.214 0.646,2.216 v 0.793 l -2.165,0.07 c -4.12,0.127 -6.182,1.475 -6.182,4.053 0,1.2 0.36,2.131 1.078,2.78 0.716,0.652 1.706,0.981 2.972,0.981 0.948,0 1.737,-0.147 2.372,-0.43 0.632,-0.283 1.268,-0.822 1.902,-1.627 h 0.093 l 0.383,1.819 z m -21.618,-7.189 2.003,-5.278 c 0.319,-0.894 0.563,-1.71 0.734,-2.451 0.271,0.969 0.535,1.786 0.792,2.451 l 1.979,5.278 z m 10.293,7.189 -6.693,-17.09 h -1.664 l -6.729,17.09 h 2.003 l 2.096,-5.417 h 6.822 l 2.117,5.417 z"
   id="path2"
   inkscape:connector-curvature="0"
   style="fill:#b90276" />
	<path
   d="m 369,21.66 -10.83,29.01 c -0.26,0.42 -0.54,0.82 -0.74,1.35 l -34.89,92.54 H 286.15 L 250.97,52.02 c -1.21,-3.13 -3.38,-4.33 -6.75,-4.33 h -1.05 l 1.97,-5.21 7.86,-20.82 h 5.86 c 10.12,0 14.939,3.13 18.08,11.57 l 27.439,81.88 28.521,-81.88 c 3.14,-8.44 8.199,-11.57 18.069,-11.57 z"
   id="path4"
   inkscape:connector-curvature="0"
   style="fill:#b90276" />
	<path
   d="m 79.539,91.304 c 0,14.939 -11.565,32.29 -27.956,32.29 -12.528,0 -18.557,-7.709 -18.557,-15.902 0,-17.114 25.305,-19.283 41.209,-19.283 h 5.303 z m 45.066,53.255 V 118.78 h -9.64 c -3.372,0 -5.303,-1.934 -5.303,-5.303 V 67.685 c 0,-27.471 -12.05,-48.918 -53.02,-48.918 -12.77,0 -45.062,2.41 -45.062,25.302 v 13.014 h 28.436 v -6.506 c 0,-6.748 10.847,-8.193 16.388,-8.193 15.664,0 22.654,6.506 22.654,24.097 v 0.964 h -3.855 c -20.002,0 -73.021,3.134 -73.021,41.692 0,24.579 20.002,38.313 41.933,38.313 27.713,0 37.11,-21.686 37.11,-21.686 h 0.482 c 0,0 -0.238,2.174 -0.238,5.303 0,7.229 4.334,13.492 15.66,13.492 z"
   id="path6"
   inkscape:connector-curvature="0"
   style="fill:#ffffff" />
	<g
   id="g48">
		<g
   id="g16">
			<defs
   id="defs9">
				<path
   id="SVGID_1_"
   d="m 79.539,91.304 c 0,14.939 -11.565,32.29 -27.956,32.29 -12.528,0 -18.557,-7.709 -18.557,-15.902 0,-17.114 25.305,-19.283 41.209,-19.283 h 5.303 z m 45.066,53.255 V 118.78 h -9.64 c -3.372,0 -5.303,-1.934 -5.303,-5.303 V 67.685 c 0,-27.471 -12.05,-48.918 -53.02,-48.918 -12.77,0 -45.062,2.41 -45.062,25.302 v 13.014 h 28.436 v -6.506 c 0,-6.748 10.847,-8.193 16.388,-8.193 15.664,0 22.654,6.506 22.654,24.097 v 0.964 h -3.855 c -20.002,0 -73.021,3.134 -73.021,41.692 0,24.579 20.002,38.313 41.933,38.313 27.713,0 37.11,-21.686 37.11,-21.686 h 0.482 c 0,0 -0.238,2.174 -0.238,5.303 0,7.229 4.334,13.492 15.66,13.492 z"
   inkscape:connector-curvature="0" />
			</defs>
			<clipPath
   id="SVGID_2_">
				<use
   xlink:href="#SVGID_1_"
   overflow="visible"
   id="use11"
   style="overflow:visible"
   x="0"
   y="0"
   width="100%"
   height="100%" />
			</clipPath>
			<path
   clip-path="url(#SVGID_2_)"
   d="m 105.58,385.813 h 61.906 C 90.231,302.206 86.007,183.164 155.315,94.275 218.803,12.26 324.925,-11.984 418.57,23.474 L 393.43,-34.633 C 292.906,-55.793 170.663,-18.949 103.99,82.641 38.913,181.579 46.853,279.458 105.58,385.813"
   id="path14"
   inkscape:connector-curvature="0"
   style="fill:#ffcc00" />
		</g>
		<g
   id="g26">
			<defs
   id="defs19">
				<path
   id="SVGID_3_"
   d="m 79.539,91.304 c 0,14.939 -11.565,32.29 -27.956,32.29 -12.528,0 -18.557,-7.709 -18.557,-15.902 0,-17.114 25.305,-19.283 41.209,-19.283 h 5.303 z m 45.066,53.255 V 118.78 h -9.64 c -3.372,0 -5.303,-1.934 -5.303,-5.303 V 67.685 c 0,-27.471 -12.05,-48.918 -53.02,-48.918 -12.77,0 -45.062,2.41 -45.062,25.302 v 13.014 h 28.436 v -6.506 c 0,-6.748 10.847,-8.193 16.388,-8.193 15.664,0 22.654,6.506 22.654,24.097 v 0.964 h -3.855 c -20.002,0 -73.021,3.134 -73.021,41.692 0,24.579 20.002,38.313 41.933,38.313 27.713,0 37.11,-21.686 37.11,-21.686 h 0.482 c 0,0 -0.238,2.174 -0.238,5.303 0,7.229 4.334,13.492 15.66,13.492 z"
   inkscape:connector-curvature="0" />
			</defs>
			<clipPath
   id="SVGID_4_">
				<use
   xlink:href="#SVGID_3_"
   overflow="visible"
   id="use21"
   style="overflow:visible"
   x="0"
   y="0"
   width="100%"
   height="100%" />
			</clipPath>
			<path
   clip-path="url(#SVGID_4_)"
   d="m 56.219,414.376 h 55.209 C 45.532,295.027 36.62,185.202 109.644,74.185 184.459,-39.813 321.631,-81.153 434.43,-57.408 l -21.946,-50.696 C 264.064,-124.737 123.306,-57.613 52.06,77.152 -9.679,194.111 1.599,307.504 56.219,414.376"
   id="path24"
   inkscape:connector-curvature="0"
   style="fill:#f3953f" />
		</g>
		<g
   id="g36">
			<defs
   id="defs29">
				<path
   id="SVGID_5_"
   d="m 79.539,91.304 c 0,14.939 -11.565,32.29 -27.956,32.29 -12.528,0 -18.557,-7.709 -18.557,-15.902 0,-17.114 25.305,-19.283 41.209,-19.283 h 5.303 z m 45.066,53.255 V 118.78 h -9.64 c -3.372,0 -5.303,-1.934 -5.303,-5.303 V 67.685 c 0,-27.471 -12.05,-48.918 -53.02,-48.918 -12.77,0 -45.062,2.41 -45.062,25.302 v 13.014 h 28.436 v -6.506 c 0,-6.748 10.847,-8.193 16.388,-8.193 15.664,0 22.654,6.506 22.654,24.097 v 0.964 h -3.855 c -20.002,0 -73.021,3.134 -73.021,41.692 0,24.579 20.002,38.313 41.933,38.313 27.713,0 37.11,-21.686 37.11,-21.686 h 0.482 c 0,0 -0.238,2.174 -0.238,5.303 0,7.229 4.334,13.492 15.66,13.492 z"
   inkscape:connector-curvature="0" />
			</defs>
			<clipPath
   id="SVGID_6_">
				<use
   xlink:href="#SVGID_5_"
   overflow="visible"
   id="use31"
   style="overflow:visible"
   x="0"
   y="0"
   width="100%"
   height="100%" />
			</clipPath>
			<path
   clip-path="url(#SVGID_6_)"
   d="M 10.485,388.331 H 54.298 C 5.133,292.137 -5.016,190.075 50.556,84.802 114.493,-36.152 241.806,-96.423 374.972,-81.945 l -16.815,-38.851 C 206.384,-124.547 74.596,-49.868 11.547,79.46 -41.89,187.932 -29.604,283.59 10.485,388.331"
   id="path34"
   inkscape:connector-curvature="0"
   style="fill:#d51317" />
		</g>
		<g
   id="g46">
			<defs
   id="defs39">
				<path
   id="SVGID_7_"
   d="m 79.539,91.304 c 0,14.939 -11.565,32.29 -27.956,32.29 -12.528,0 -18.557,-7.709 -18.557,-15.902 0,-17.114 25.305,-19.283 41.209,-19.283 h 5.303 z m 45.066,53.255 V 118.78 h -9.64 c -3.372,0 -5.303,-1.934 -5.303,-5.303 V 67.685 c 0,-27.471 -12.05,-48.918 -53.02,-48.918 -12.77,0 -45.062,2.41 -45.062,25.302 v 13.014 h 28.436 v -6.506 c 0,-6.748 10.847,-8.193 16.388,-8.193 15.664,0 22.654,6.506 22.654,24.097 v 0.964 h -3.855 c -20.002,0 -73.021,3.134 -73.021,41.692 0,24.579 20.002,38.313 41.933,38.313 27.713,0 37.11,-21.686 37.11,-21.686 h 0.482 c 0,0 -0.238,2.174 -0.238,5.303 0,7.229 4.334,13.492 15.66,13.492 z"
   inkscape:connector-curvature="0" />
			</defs>
			<clipPath
   id="SVGID_8_">
				<use
   xlink:href="#SVGID_7_"
   overflow="visible"
   id="use41"
   style="overflow:visible"
   x="0"
   y="0"
   width="100%"
   height="100%" />
			</clipPath>
			<path
   clip-path="url(#SVGID_8_)"
   d="M -22.685,385.813 H 10.648 C -29.04,282.108 -41.207,187.397 11.702,79.998 74.124,-48.048 204.61,-121.988 354.879,-118.277 l -13.801,-31.896 c -146.564,-7.932 -299.221,77.261 -365.353,232.814 -46.57,108.993 -41.808,191.531 1.59,303.172"
   id="path44"
   inkscape:connector-curvature="0"
   style="fill:#4c76ba" />
		</g>
	</g>
	<path
   d="m 247.01,21.66 -1.87,4.94 -3.569,9.45 -5.94,15.73 c -0.03,0.09 -0.09,0.15 -0.13,0.24 l -34.89,92.54 h -36.39 l -35.18,-92.54 c -1.2,-3.13 -3.37,-4.33 -6.75,-4.33 h -2.65 V 21.66 h 17.3 c 10.12,0 14.94,3.13 18.07,11.57 l 27.44,81.88 28.53,-81.88 c 3.119,-8.44 8.18,-11.57 18.069,-11.57 z"
   id="path50"
   inkscape:connector-curvature="0"
   style="fill:#b90276" />
</g></svg>